<?xml version="1.0" standalone="no"?>
<!DOCTYPE svg PUBLIC "-//W3C//DTD SVG 20010904//EN"
 "http://www.w3.org/TR/2001/REC-SVG-20010904/DTD/svg10.dtd">
<svg version="1.0" xmlns="http://www.w3.org/2000/svg"
 width="952.000000pt" height="338.000000pt" viewBox="0 0 952.000000 338.000000"
 preserveAspectRatio="xMidYMid meet">
<metadata>
Created by potrace 1.16, written by Peter Selinger 2001-2019
</metadata>
<g transform="translate(0.000000,338.000000) scale(0.100000,-0.100000)"
fill="#000000" stroke="none">
<path d="M1128 2043 c-3 -515 -4 -540 -23 -577 -25 -50 -61 -76 -113 -83 -58
-8 -107 4 -142 34 -43 36 -60 73 -67 148 -3 36 -9 65 -12 65 -3 0 -62 -7 -131
-15 -69 -8 -127 -15 -130 -15 -12 0 9 -159 28 -212 71 -202 286 -298 543 -244
163 35 273 141 317 306 12 44 16 159 19 593 l4 537 -145 0 -145 0 -3 -537z"/>
<path d="M1730 1865 l0 -715 540 0 540 0 0 120 0 120 -400 0 -400 0 0 195 0
195 360 0 360 0 0 120 0 120 -360 0 -360 0 0 160 0 160 385 0 385 0 0 120 0
120 -525 0 -525 0 0 -715z"/>
<path d="M3050 1865 l0 -715 135 0 135 0 0 551 c0 302 3 548 8 545 4 -2 68
-250 142 -550 l135 -546 139 2 140 3 136 545 c126 503 137 541 143 496 4 -27
7 -273 7 -547 l0 -499 135 0 135 0 0 715 0 715 -218 0 -218 0 -123 -472 c-69
-260 -127 -479 -131 -486 -3 -7 -64 206 -135 473 l-130 485 -217 0 -218 0 0
-715z"/>
<path d="M5280 1865 l0 -717 363 4 c344 4 366 5 432 27 153 50 255 139 324
284 64 135 76 195 75 402 -1 152 -4 193 -22 260 -61 225 -188 368 -382 431
-47 15 -106 18 -422 22 l-368 4 0 -717z m726 434 c76 -39 112 -82 146 -174 17
-49 22 -89 26 -217 8 -292 -40 -431 -170 -489 -48 -21 -71 -23 -245 -27 l-193
-4 0 477 0 478 185 -5 185 -5 66 -34z"/>
<path d="M6730 1865 l0 -715 540 0 540 0 0 120 0 120 -400 0 -400 0 0 195 0
195 360 0 360 0 0 120 0 120 -360 0 -360 0 0 160 0 160 385 0 385 0 0 120 0
120 -525 0 -525 0 0 -715z"/>
<path d="M7910 2578 c0 -2 115 -322 254 -713 l254 -710 155 -3 155 -2 15 42
c31 90 476 1334 486 1361 l11 27 -153 0 -153 0 -167 -507 c-191 -577 -183
-554 -191 -533 -3 8 -84 245 -180 525 l-173 510 -157 3 c-86 1 -156 1 -156 0z"/>
<path d="M4730 1290 l0 -140 135 0 135 0 0 140 0 140 -135 0 -135 0 0 -140z"/>
</g>
</svg>
